<svg xmlns="http://www.w3.org/2000/svg" width="1200" height="630" viewBox="0 0 1200 630">
  <defs>
    <linearGradient id="bgGrad" x1="0" y1="0" x2="1" y2="1">
      <stop offset="0%" stop-color="#0a0a0a"/>
      <stop offset="100%" stop-color="#050505"/>
    </linearGradient>
    <linearGradient id="greenGlow" x1="0" y1="0" x2="1" y2="1">
      <stop offset="0%" stop-color="#1DB954" stop-opacity="0.15"/>
      <stop offset="100%" stop-color="#1DB954" stop-opacity="0"/>
    </linearGradient>
    <radialGradient id="spotGlow" cx="0.35" cy="0.5" r="0.5">
      <stop offset="0%" stop-color="#1DB954" stop-opacity="0.06"/>
      <stop offset="100%" stop-color="#1DB954" stop-opacity="0"/>
    </radialGradient>
    <filter id="glowFilter" x="-50%" y="-50%" width="200%" height="200%">
      <feGaussianBlur in="SourceGraphic" stdDeviation="20" result="blur"/>
      <feComposite in="SourceGraphic" in2="blur" operator="over"/>
    </filter>
    <filter id="softGlow" x="-50%" y="-50%" width="200%" height="200%">
      <feGaussianBlur in="SourceGraphic" stdDeviation="40"/>
    </filter>
  </defs>

  <!-- Background -->
  <rect width="1200" height="630" fill="url(#bgGrad)"/>

  <!-- Radial glow behind play button -->
  <rect width="1200" height="630" fill="url(#spotGlow)"/>

  <!-- Dot grid pattern -->
  <g opacity="0.08">
    <!-- Generate dot grid rows -->
    <g fill="#ffffff">
      <!-- Row pattern repeated across the canvas -->
      <!-- Using circles at 30px intervals -->
      <circle cx="30" cy="30" r="1"/><circle cx="60" cy="30" r="1"/><circle cx="90" cy="30" r="1"/><circle cx="120" cy="30" r="1"/><circle cx="150" cy="30" r="1"/><circle cx="180" cy="30" r="1"/><circle cx="210" cy="30" r="1"/><circle cx="240" cy="30" r="1"/><circle cx="270" cy="30" r="1"/><circle cx="300" cy="30" r="1"/><circle cx="330" cy="30" r="1"/><circle cx="360" cy="30" r="1"/><circle cx="390" cy="30" r="1"/><circle cx="420" cy="30" r="1"/><circle cx="450" cy="30" r="1"/><circle cx="480" cy="30" r="1"/><circle cx="510" cy="30" r="1"/><circle cx="540" cy="30" r="1"/><circle cx="570" cy="30" r="1"/><circle cx="600" cy="30" r="1"/><circle cx="630" cy="30" r="1"/><circle cx="660" cy="30" r="1"/><circle cx="690" cy="30" r="1"/><circle cx="720" cy="30" r="1"/><circle cx="750" cy="30" r="1"/><circle cx="780" cy="30" r="1"/><circle cx="810" cy="30" r="1"/><circle cx="840" cy="30" r="1"/><circle cx="870" cy="30" r="1"/><circle cx="900" cy="30" r="1"/><circle cx="930" cy="30" r="1"/><circle cx="960" cy="30" r="1"/><circle cx="990" cy="30" r="1"/><circle cx="1020" cy="30" r="1"/><circle cx="1050" cy="30" r="1"/><circle cx="1080" cy="30" r="1"/><circle cx="1110" cy="30" r="1"/><circle cx="1140" cy="30" r="1"/><circle cx="1170" cy="30" r="1"/>
      <circle cx="30" cy="60" r="1"/><circle cx="60" cy="60" r="1"/><circle cx="90" cy="60" r="1"/><circle cx="120" cy="60" r="1"/><circle cx="150" cy="60" r="1"/><circle cx="180" cy="60" r="1"/><circle cx="210" cy="60" r="1"/><circle cx="240" cy="60" r="1"/><circle cx="270" cy="60" r="1"/><circle cx="300" cy="60" r="1"/><circle cx="330" cy="60" r="1"/><circle cx="360" cy="60" r="1"/><circle cx="390" cy="60" r="1"/><circle cx="420" cy="60" r="1"/><circle cx="450" cy="60" r="1"/><circle cx="480" cy="60" r="1"/><circle cx="510" cy="60" r="1"/><circle cx="540" cy="60" r="1"/><circle cx="570" cy="60" r="1"/><circle cx="600" cy="60" r="1"/><circle cx="630" cy="60" r="1"/><circle cx="660" cy="60" r="1"/><circle cx="690" cy="60" r="1"/><circle cx="720" cy="60" r="1"/><circle cx="750" cy="60" r="1"/><circle cx="780" cy="60" r="1"/><circle cx="810" cy="60" r="1"/><circle cx="840" cy="60" r="1"/><circle cx="870" cy="60" r="1"/><circle cx="900" cy="60" r="1"/><circle cx="930" cy="60" r="1"/><circle cx="960" cy="60" r="1"/><circle cx="990" cy="60" r="1"/><circle cx="1020" cy="60" r="1"/><circle cx="1050" cy="60" r="1"/><circle cx="1080" cy="60" r="1"/><circle cx="1110" cy="60" r="1"/><circle cx="1140" cy="60" r="1"/><circle cx="1170" cy="60" r="1"/>
      <circle cx="30" cy="90" r="1"/><circle cx="60" cy="90" r="1"/><circle cx="90" cy="90" r="1"/><circle cx="120" cy="90" r="1"/><circle cx="150" cy="90" r="1"/><circle cx="180" cy="90" r="1"/><circle cx="210" cy="90" r="1"/><circle cx="240" cy="90" r="1"/><circle cx="270" cy="90" r="1"/><circle cx="300" cy="90" r="1"/><circle cx="330" cy="90" r="1"/><circle cx="360" cy="90" r="1"/><circle cx="390" cy="90" r="1"/><circle cx="420" cy="90" r="1"/><circle cx="450" cy="90" r="1"/><circle cx="480" cy="90" r="1"/><circle cx="510" cy="90" r="1"/><circle cx="540" cy="90" r="1"/><circle cx="570" cy="90" r="1"/><circle cx="600" cy="90" r="1"/><circle cx="630" cy="90" r="1"/><circle cx="660" cy="90" r="1"/><circle cx="690" cy="90" r="1"/><circle cx="720" cy="90" r="1"/><circle cx="750" cy="90" r="1"/><circle cx="780" cy="90" r="1"/><circle cx="810" cy="90" r="1"/><circle cx="840" cy="90" r="1"/><circle cx="870" cy="90" r="1"/><circle cx="900" cy="90" r="1"/><circle cx="930" cy="90" r="1"/><circle cx="960" cy="90" r="1"/><circle cx="990" cy="90" r="1"/><circle cx="1020" cy="90" r="1"/><circle cx="1050" cy="90" r="1"/><circle cx="1080" cy="90" r="1"/><circle cx="1110" cy="90" r="1"/><circle cx="1140" cy="90" r="1"/><circle cx="1170" cy="90" r="1"/>
      <circle cx="30" cy="120" r="1"/><circle cx="60" cy="120" r="1"/><circle cx="90" cy="120" r="1"/><circle cx="120" cy="120" r="1"/><circle cx="150" cy="120" r="1"/><circle cx="180" cy="120" r="1"/><circle cx="210" cy="120" r="1"/><circle cx="240" cy="120" r="1"/><circle cx="270" cy="120" r="1"/><circle cx="300" cy="120" r="1"/><circle cx="330" cy="120" r="1"/><circle cx="360" cy="120" r="1"/><circle cx="390" cy="120" r="1"/><circle cx="420" cy="120" r="1"/><circle cx="450" cy="120" r="1"/><circle cx="480" cy="120" r="1"/><circle cx="510" cy="120" r="1"/><circle cx="540" cy="120" r="1"/><circle cx="570" cy="120" r="1"/><circle cx="600" cy="120" r="1"/><circle cx="630" cy="120" r="1"/><circle cx="660" cy="120" r="1"/><circle cx="690" cy="120" r="1"/><circle cx="720" cy="120" r="1"/><circle cx="750" cy="120" r="1"/><circle cx="780" cy="120" r="1"/><circle cx="810" cy="120" r="1"/><circle cx="840" cy="120" r="1"/><circle cx="870" cy="120" r="1"/><circle cx="900" cy="120" r="1"/><circle cx="930" cy="120" r="1"/><circle cx="960" cy="120" r="1"/><circle cx="990" cy="120" r="1"/><circle cx="1020" cy="120" r="1"/><circle cx="1050" cy="120" r="1"/><circle cx="1080" cy="120" r="1"/><circle cx="1110" cy="120" r="1"/><circle cx="1140" cy="120" r="1"/><circle cx="1170" cy="120" r="1"/>
      <circle cx="30" cy="150" r="1"/><circle cx="60" cy="150" r="1"/><circle cx="90" cy="150" r="1"/><circle cx="120" cy="150" r="1"/><circle cx="150" cy="150" r="1"/><circle cx="180" cy="150" r="1"/><circle cx="210" cy="150" r="1"/><circle cx="240" cy="150" r="1"/><circle cx="270" cy="150" r="1"/><circle cx="300" cy="150" r="1"/><circle cx="330" cy="150" r="1"/><circle cx="360" cy="150" r="1"/><circle cx="390" cy="150" r="1"/><circle cx="420" cy="150" r="1"/><circle cx="450" cy="150" r="1"/><circle cx="480" cy="150" r="1"/><circle cx="510" cy="150" r="1"/><circle cx="540" cy="150" r="1"/><circle cx="570" cy="150" r="1"/><circle cx="600" cy="150" r="1"/><circle cx="630" cy="150" r="1"/><circle cx="660" cy="150" r="1"/><circle cx="690" cy="150" r="1"/><circle cx="720" cy="150" r="1"/><circle cx="750" cy="150" r="1"/><circle cx="780" cy="150" r="1"/><circle cx="810" cy="150" r="1"/><circle cx="840" cy="150" r="1"/><circle cx="870" cy="150" r="1"/><circle cx="900" cy="150" r="1"/><circle cx="930" cy="150" r="1"/><circle cx="960" cy="150" r="1"/><circle cx="990" cy="150" r="1"/><circle cx="1020" cy="150" r="1"/><circle cx="1050" cy="150" r="1"/><circle cx="1080" cy="150" r="1"/><circle cx="1110" cy="150" r="1"/><circle cx="1140" cy="150" r="1"/><circle cx="1170" cy="150" r="1"/>
      <circle cx="30" cy="180" r="1"/><circle cx="60" cy="180" r="1"/><circle cx="90" cy="180" r="1"/><circle cx="120" cy="180" r="1"/><circle cx="150" cy="180" r="1"/><circle cx="180" cy="180" r="1"/><circle cx="210" cy="180" r="1"/><circle cx="240" cy="180" r="1"/><circle cx="270" cy="180" r="1"/><circle cx="300" cy="180" r="1"/><circle cx="330" cy="180" r="1"/><circle cx="360" cy="180" r="1"/><circle cx="390" cy="180" r="1"/><circle cx="420" cy="180" r="1"/><circle cx="450" cy="180" r="1"/><circle cx="480" cy="180" r="1"/><circle cx="510" cy="180" r="1"/><circle cx="540" cy="180" r="1"/><circle cx="570" cy="180" r="1"/><circle cx="600" cy="180" r="1"/><circle cx="630" cy="180" r="1"/><circle cx="660" cy="180" r="1"/><circle cx="690" cy="180" r="1"/><circle cx="720" cy="180" r="1"/><circle cx="750" cy="180" r="1"/><circle cx="780" cy="180" r="1"/><circle cx="810" cy="180" r="1"/><circle cx="840" cy="180" r="1"/><circle cx="870" cy="180" r="1"/><circle cx="900" cy="180" r="1"/><circle cx="930" cy="180" r="1"/><circle cx="960" cy="180" r="1"/><circle cx="990" cy="180" r="1"/><circle cx="1020" cy="180" r="1"/><circle cx="1050" cy="180" r="1"/><circle cx="1080" cy="180" r="1"/><circle cx="1110" cy="180" r="1"/><circle cx="1140" cy="180" r="1"/><circle cx="1170" cy="180" r="1"/>
      <circle cx="30" cy="210" r="1"/><circle cx="60" cy="210" r="1"/><circle cx="90" cy="210" r="1"/><circle cx="120" cy="210" r="1"/><circle cx="150" cy="210" r="1"/><circle cx="180" cy="210" r="1"/><circle cx="210" cy="210" r="1"/><circle cx="240" cy="210" r="1"/><circle cx="270" cy="210" r="1"/><circle cx="300" cy="210" r="1"/><circle cx="330" cy="210" r="1"/><circle cx="360" cy="210" r="1"/><circle cx="390" cy="210" r="1"/><circle cx="420" cy="210" r="1"/><circle cx="450" cy="210" r="1"/><circle cx="480" cy="210" r="1"/><circle cx="510" cy="210" r="1"/><circle cx="540" cy="210" r="1"/><circle cx="570" cy="210" r="1"/><circle cx="600" cy="210" r="1"/><circle cx="630" cy="210" r="1"/><circle cx="660" cy="210" r="1"/><circle cx="690" cy="210" r="1"/><circle cx="720" cy="210" r="1"/><circle cx="750" cy="210" r="1"/><circle cx="780" cy="210" r="1"/><circle cx="810" cy="210" r="1"/><circle cx="840" cy="210" r="1"/><circle cx="870" cy="210" r="1"/><circle cx="900" cy="210" r="1"/><circle cx="930" cy="210" r="1"/><circle cx="960" cy="210" r="1"/><circle cx="990" cy="210" r="1"/><circle cx="1020" cy="210" r="1"/><circle cx="1050" cy="210" r="1"/><circle cx="1080" cy="210" r="1"/><circle cx="1110" cy="210" r="1"/><circle cx="1140" cy="210" r="1"/><circle cx="1170" cy="210" r="1"/>
      <circle cx="30" cy="240" r="1"/><circle cx="60" cy="240" r="1"/><circle cx="90" cy="240" r="1"/><circle cx="120" cy="240" r="1"/><circle cx="150" cy="240" r="1"/><circle cx="180" cy="240" r="1"/><circle cx="210" cy="240" r="1"/><circle cx="240" cy="240" r="1"/><circle cx="270" cy="240" r="1"/><circle cx="300" cy="240" r="1"/><circle cx="330" cy="240" r="1"/><circle cx="360" cy="240" r="1"/><circle cx="390" cy="240" r="1"/><circle cx="420" cy="240" r="1"/><circle cx="450" cy="240" r="1"/><circle cx="480" cy="240" r="1"/><circle cx="510" cy="240" r="1"/><circle cx="540" cy="240" r="1"/><circle cx="570" cy="240" r="1"/><circle cx="600" cy="240" r="1"/><circle cx="630" cy="240" r="1"/><circle cx="660" cy="240" r="1"/><circle cx="690" cy="240" r="1"/><circle cx="720" cy="240" r="1"/><circle cx="750" cy="240" r="1"/><circle cx="780" cy="240" r="1"/><circle cx="810" cy="240" r="1"/><circle cx="840" cy="240" r="1"/><circle cx="870" cy="240" r="1"/><circle cx="900" cy="240" r="1"/><circle cx="930" cy="240" r="1"/><circle cx="960" cy="240" r="1"/><circle cx="990" cy="240" r="1"/><circle cx="1020" cy="240" r="1"/><circle cx="1050" cy="240" r="1"/><circle cx="1080" cy="240" r="1"/><circle cx="1110" cy="240" r="1"/><circle cx="1140" cy="240" r="1"/><circle cx="1170" cy="240" r="1"/>
      <circle cx="30" cy="270" r="1"/><circle cx="60" cy="270" r="1"/><circle cx="90" cy="270" r="1"/><circle cx="120" cy="270" r="1"/><circle cx="150" cy="270" r="1"/><circle cx="180" cy="270" r="1"/><circle cx="210" cy="270" r="1"/><circle cx="240" cy="270" r="1"/><circle cx="270" cy="270" r="1"/><circle cx="300" cy="270" r="1"/><circle cx="330" cy="270" r="1"/><circle cx="360" cy="270" r="1"/><circle cx="390" cy="270" r="1"/><circle cx="420" cy="270" r="1"/><circle cx="450" cy="270" r="1"/><circle cx="480" cy="270" r="1"/><circle cx="510" cy="270" r="1"/><circle cx="540" cy="270" r="1"/><circle cx="570" cy="270" r="1"/><circle cx="600" cy="270" r="1"/><circle cx="630" cy="270" r="1"/><circle cx="660" cy="270" r="1"/><circle cx="690" cy="270" r="1"/><circle cx="720" cy="270" r="1"/><circle cx="750" cy="270" r="1"/><circle cx="780" cy="270" r="1"/><circle cx="810" cy="270" r="1"/><circle cx="840" cy="270" r="1"/><circle cx="870" cy="270" r="1"/><circle cx="900" cy="270" r="1"/><circle cx="930" cy="270" r="1"/><circle cx="960" cy="270" r="1"/><circle cx="990" cy="270" r="1"/><circle cx="1020" cy="270" r="1"/><circle cx="1050" cy="270" r="1"/><circle cx="1080" cy="270" r="1"/><circle cx="1110" cy="270" r="1"/><circle cx="1140" cy="270" r="1"/><circle cx="1170" cy="270" r="1"/>
      <circle cx="30" cy="300" r="1"/><circle cx="60" cy="300" r="1"/><circle cx="90" cy="300" r="1"/><circle cx="120" cy="300" r="1"/><circle cx="150" cy="300" r="1"/><circle cx="180" cy="300" r="1"/><circle cx="210" cy="300" r="1"/><circle cx="240" cy="300" r="1"/><circle cx="270" cy="300" r="1"/><circle cx="300" cy="300" r="1"/><circle cx="330" cy="300" r="1"/><circle cx="360" cy="300" r="1"/><circle cx="390" cy="300" r="1"/><circle cx="420" cy="300" r="1"/><circle cx="450" cy="300" r="1"/><circle cx="480" cy="300" r="1"/><circle cx="510" cy="300" r="1"/><circle cx="540" cy="300" r="1"/><circle cx="570" cy="300" r="1"/><circle cx="600" cy="300" r="1"/><circle cx="630" cy="300" r="1"/><circle cx="660" cy="300" r="1"/><circle cx="690" cy="300" r="1"/><circle cx="720" cy="300" r="1"/><circle cx="750" cy="300" r="1"/><circle cx="780" cy="300" r="1"/><circle cx="810" cy="300" r="1"/><circle cx="840" cy="300" r="1"/><circle cx="870" cy="300" r="1"/><circle cx="900" cy="300" r="1"/><circle cx="930" cy="300" r="1"/><circle cx="960" cy="300" r="1"/><circle cx="990" cy="300" r="1"/><circle cx="1020" cy="300" r="1"/><circle cx="1050" cy="300" r="1"/><circle cx="1080" cy="300" r="1"/><circle cx="1110" cy="300" r="1"/><circle cx="1140" cy="300" r="1"/><circle cx="1170" cy="300" r="1"/>
      <circle cx="30" cy="330" r="1"/><circle cx="60" cy="330" r="1"/><circle cx="90" cy="330" r="1"/><circle cx="120" cy="330" r="1"/><circle cx="150" cy="330" r="1"/><circle cx="180" cy="330" r="1"/><circle cx="210" cy="330" r="1"/><circle cx="240" cy="330" r="1"/><circle cx="270" cy="330" r="1"/><circle cx="300" cy="330" r="1"/><circle cx="330" cy="330" r="1"/><circle cx="360" cy="330" r="1"/><circle cx="390" cy="330" r="1"/><circle cx="420" cy="330" r="1"/><circle cx="450" cy="330" r="1"/><circle cx="480" cy="330" r="1"/><circle cx="510" cy="330" r="1"/><circle cx="540" cy="330" r="1"/><circle cx="570" cy="330" r="1"/><circle cx="600" cy="330" r="1"/><circle cx="630" cy="330" r="1"/><circle cx="660" cy="330" r="1"/><circle cx="690" cy="330" r="1"/><circle cx="720" cy="330" r="1"/><circle cx="750" cy="330" r="1"/><circle cx="780" cy="330" r="1"/><circle cx="810" cy="330" r="1"/><circle cx="840" cy="330" r="1"/><circle cx="870" cy="330" r="1"/><circle cx="900" cy="330" r="1"/><circle cx="930" cy="330" r="1"/><circle cx="960" cy="330" r="1"/><circle cx="990" cy="330" r="1"/><circle cx="1020" cy="330" r="1"/><circle cx="1050" cy="330" r="1"/><circle cx="1080" cy="330" r="1"/><circle cx="1110" cy="330" r="1"/><circle cx="1140" cy="330" r="1"/><circle cx="1170" cy="330" r="1"/>
      <circle cx="30" cy="360" r="1"/><circle cx="60" cy="360" r="1"/><circle cx="90" cy="360" r="1"/><circle cx="120" cy="360" r="1"/><circle cx="150" cy="360" r="1"/><circle cx="180" cy="360" r="1"/><circle cx="210" cy="360" r="1"/><circle cx="240" cy="360" r="1"/><circle cx="270" cy="360" r="1"/><circle cx="300" cy="360" r="1"/><circle cx="330" cy="360" r="1"/><circle cx="360" cy="360" r="1"/><circle cx="390" cy="360" r="1"/><circle cx="420" cy="360" r="1"/><circle cx="450" cy="360" r="1"/><circle cx="480" cy="360" r="1"/><circle cx="510" cy="360" r="1"/><circle cx="540" cy="360" r="1"/><circle cx="570" cy="360" r="1"/><circle cx="600" cy="360" r="1"/><circle cx="630" cy="360" r="1"/><circle cx="660" cy="360" r="1"/><circle cx="690" cy="360" r="1"/><circle cx="720" cy="360" r="1"/><circle cx="750" cy="360" r="1"/><circle cx="780" cy="360" r="1"/><circle cx="810" cy="360" r="1"/><circle cx="840" cy="360" r="1"/><circle cx="870" cy="360" r="1"/><circle cx="900" cy="360" r="1"/><circle cx="930" cy="360" r="1"/><circle cx="960" cy="360" r="1"/><circle cx="990" cy="360" r="1"/><circle cx="1020" cy="360" r="1"/><circle cx="1050" cy="360" r="1"/><circle cx="1080" cy="360" r="1"/><circle cx="1110" cy="360" r="1"/><circle cx="1140" cy="360" r="1"/><circle cx="1170" cy="360" r="1"/>
      <circle cx="30" cy="390" r="1"/><circle cx="60" cy="390" r="1"/><circle cx="90" cy="390" r="1"/><circle cx="120" cy="390" r="1"/><circle cx="150" cy="390" r="1"/><circle cx="180" cy="390" r="1"/><circle cx="210" cy="390" r="1"/><circle cx="240" cy="390" r="1"/><circle cx="270" cy="390" r="1"/><circle cx="300" cy="390" r="1"/><circle cx="330" cy="390" r="1"/><circle cx="360" cy="390" r="1"/><circle cx="390" cy="390" r="1"/><circle cx="420" cy="390" r="1"/><circle cx="450" cy="390" r="1"/><circle cx="480" cy="390" r="1"/><circle cx="510" cy="390" r="1"/><circle cx="540" cy="390" r="1"/><circle cx="570" cy="390" r="1"/><circle cx="600" cy="390" r="1"/><circle cx="630" cy="390" r="1"/><circle cx="660" cy="390" r="1"/><circle cx="690" cy="390" r="1"/><circle cx="720" cy="390" r="1"/><circle cx="750" cy="390" r="1"/><circle cx="780" cy="390" r="1"/><circle cx="810" cy="390" r="1"/><circle cx="840" cy="390" r="1"/><circle cx="870" cy="390" r="1"/><circle cx="900" cy="390" r="1"/><circle cx="930" cy="390" r="1"/><circle cx="960" cy="390" r="1"/><circle cx="990" cy="390" r="1"/><circle cx="1020" cy="390" r="1"/><circle cx="1050" cy="390" r="1"/><circle cx="1080" cy="390" r="1"/><circle cx="1110" cy="390" r="1"/><circle cx="1140" cy="390" r="1"/><circle cx="1170" cy="390" r="1"/>
      <circle cx="30" cy="420" r="1"/><circle cx="60" cy="420" r="1"/><circle cx="90" cy="420" r="1"/><circle cx="120" cy="420" r="1"/><circle cx="150" cy="420" r="1"/><circle cx="180" cy="420" r="1"/><circle cx="210" cy="420" r="1"/><circle cx="240" cy="420" r="1"/><circle cx="270" cy="420" r="1"/><circle cx="300" cy="420" r="1"/><circle cx="330" cy="420" r="1"/><circle cx="360" cy="420" r="1"/><circle cx="390" cy="420" r="1"/><circle cx="420" cy="420" r="1"/><circle cx="450" cy="420" r="1"/><circle cx="480" cy="420" r="1"/><circle cx="510" cy="420" r="1"/><circle cx="540" cy="420" r="1"/><circle cx="570" cy="420" r="1"/><circle cx="600" cy="420" r="1"/><circle cx="630" cy="420" r="1"/><circle cx="660" cy="420" r="1"/><circle cx="690" cy="420" r="1"/><circle cx="720" cy="420" r="1"/><circle cx="750" cy="420" r="1"/><circle cx="780" cy="420" r="1"/><circle cx="810" cy="420" r="1"/><circle cx="840" cy="420" r="1"/><circle cx="870" cy="420" r="1"/><circle cx="900" cy="420" r="1"/><circle cx="930" cy="420" r="1"/><circle cx="960" cy="420" r="1"/><circle cx="990" cy="420" r="1"/><circle cx="1020" cy="420" r="1"/><circle cx="1050" cy="420" r="1"/><circle cx="1080" cy="420" r="1"/><circle cx="1110" cy="420" r="1"/><circle cx="1140" cy="420" r="1"/><circle cx="1170" cy="420" r="1"/>
      <circle cx="30" cy="450" r="1"/><circle cx="60" cy="450" r="1"/><circle cx="90" cy="450" r="1"/><circle cx="120" cy="450" r="1"/><circle cx="150" cy="450" r="1"/><circle cx="180" cy="450" r="1"/><circle cx="210" cy="450" r="1"/><circle cx="240" cy="450" r="1"/><circle cx="270" cy="450" r="1"/><circle cx="300" cy="450" r="1"/><circle cx="330" cy="450" r="1"/><circle cx="360" cy="450" r="1"/><circle cx="390" cy="450" r="1"/><circle cx="420" cy="450" r="1"/><circle cx="450" cy="450" r="1"/><circle cx="480" cy="450" r="1"/><circle cx="510" cy="450" r="1"/><circle cx="540" cy="450" r="1"/><circle cx="570" cy="450" r="1"/><circle cx="600" cy="450" r="1"/><circle cx="630" cy="450" r="1"/><circle cx="660" cy="450" r="1"/><circle cx="690" cy="450" r="1"/><circle cx="720" cy="450" r="1"/><circle cx="750" cy="450" r="1"/><circle cx="780" cy="450" r="1"/><circle cx="810" cy="450" r="1"/><circle cx="840" cy="450" r="1"/><circle cx="870" cy="450" r="1"/><circle cx="900" cy="450" r="1"/><circle cx="930" cy="450" r="1"/><circle cx="960" cy="450" r="1"/><circle cx="990" cy="450" r="1"/><circle cx="1020" cy="450" r="1"/><circle cx="1050" cy="450" r="1"/><circle cx="1080" cy="450" r="1"/><circle cx="1110" cy="450" r="1"/><circle cx="1140" cy="450" r="1"/><circle cx="1170" cy="450" r="1"/>
      <circle cx="30" cy="480" r="1"/><circle cx="60" cy="480" r="1"/><circle cx="90" cy="480" r="1"/><circle cx="120" cy="480" r="1"/><circle cx="150" cy="480" r="1"/><circle cx="180" cy="480" r="1"/><circle cx="210" cy="480" r="1"/><circle cx="240" cy="480" r="1"/><circle cx="270" cy="480" r="1"/><circle cx="300" cy="480" r="1"/><circle cx="330" cy="480" r="1"/><circle cx="360" cy="480" r="1"/><circle cx="390" cy="480" r="1"/><circle cx="420" cy="480" r="1"/><circle cx="450" cy="480" r="1"/><circle cx="480" cy="480" r="1"/><circle cx="510" cy="480" r="1"/><circle cx="540" cy="480" r="1"/><circle cx="570" cy="480" r="1"/><circle cx="600" cy="480" r="1"/><circle cx="630" cy="480" r="1"/><circle cx="660" cy="480" r="1"/><circle cx="690" cy="480" r="1"/><circle cx="720" cy="480" r="1"/><circle cx="750" cy="480" r="1"/><circle cx="780" cy="480" r="1"/><circle cx="810" cy="480" r="1"/><circle cx="840" cy="480" r="1"/><circle cx="870" cy="480" r="1"/><circle cx="900" cy="480" r="1"/><circle cx="930" cy="480" r="1"/><circle cx="960" cy="480" r="1"/><circle cx="990" cy="480" r="1"/><circle cx="1020" cy="480" r="1"/><circle cx="1050" cy="480" r="1"/><circle cx="1080" cy="480" r="1"/><circle cx="1110" cy="480" r="1"/><circle cx="1140" cy="480" r="1"/><circle cx="1170" cy="480" r="1"/>
      <circle cx="30" cy="510" r="1"/><circle cx="60" cy="510" r="1"/><circle cx="90" cy="510" r="1"/><circle cx="120" cy="510" r="1"/><circle cx="150" cy="510" r="1"/><circle cx="180" cy="510" r="1"/><circle cx="210" cy="510" r="1"/><circle cx="240" cy="510" r="1"/><circle cx="270" cy="510" r="1"/><circle cx="300" cy="510" r="1"/><circle cx="330" cy="510" r="1"/><circle cx="360" cy="510" r="1"/><circle cx="390" cy="510" r="1"/><circle cx="420" cy="510" r="1"/><circle cx="450" cy="510" r="1"/><circle cx="480" cy="510" r="1"/><circle cx="510" cy="510" r="1"/><circle cx="540" cy="510" r="1"/><circle cx="570" cy="510" r="1"/><circle cx="600" cy="510" r="1"/><circle cx="630" cy="510" r="1"/><circle cx="660" cy="510" r="1"/><circle cx="690" cy="510" r="1"/><circle cx="720" cy="510" r="1"/><circle cx="750" cy="510" r="1"/><circle cx="780" cy="510" r="1"/><circle cx="810" cy="510" r="1"/><circle cx="840" cy="510" r="1"/><circle cx="870" cy="510" r="1"/><circle cx="900" cy="510" r="1"/><circle cx="930" cy="510" r="1"/><circle cx="960" cy="510" r="1"/><circle cx="990" cy="510" r="1"/><circle cx="1020" cy="510" r="1"/><circle cx="1050" cy="510" r="1"/><circle cx="1080" cy="510" r="1"/><circle cx="1110" cy="510" r="1"/><circle cx="1140" cy="510" r="1"/><circle cx="1170" cy="510" r="1"/>
      <circle cx="30" cy="540" r="1"/><circle cx="60" cy="540" r="1"/><circle cx="90" cy="540" r="1"/><circle cx="120" cy="540" r="1"/><circle cx="150" cy="540" r="1"/><circle cx="180" cy="540" r="1"/><circle cx="210" cy="540" r="1"/><circle cx="240" cy="540" r="1"/><circle cx="270" cy="540" r="1"/><circle cx="300" cy="540" r="1"/><circle cx="330" cy="540" r="1"/><circle cx="360" cy="540" r="1"/><circle cx="390" cy="540" r="1"/><circle cx="420" cy="540" r="1"/><circle cx="450" cy="540" r="1"/><circle cx="480" cy="540" r="1"/><circle cx="510" cy="540" r="1"/><circle cx="540" cy="540" r="1"/><circle cx="570" cy="540" r="1"/><circle cx="600" cy="540" r="1"/><circle cx="630" cy="540" r="1"/><circle cx="660" cy="540" r="1"/><circle cx="690" cy="540" r="1"/><circle cx="720" cy="540" r="1"/><circle cx="750" cy="540" r="1"/><circle cx="780" cy="540" r="1"/><circle cx="810" cy="540" r="1"/><circle cx="840" cy="540" r="1"/><circle cx="870" cy="540" r="1"/><circle cx="900" cy="540" r="1"/><circle cx="930" cy="540" r="1"/><circle cx="960" cy="540" r="1"/><circle cx="990" cy="540" r="1"/><circle cx="1020" cy="540" r="1"/><circle cx="1050" cy="540" r="1"/><circle cx="1080" cy="540" r="1"/><circle cx="1110" cy="540" r="1"/><circle cx="1140" cy="540" r="1"/><circle cx="1170" cy="540" r="1"/>
      <circle cx="30" cy="570" r="1"/><circle cx="60" cy="570" r="1"/><circle cx="90" cy="570" r="1"/><circle cx="120" cy="570" r="1"/><circle cx="150" cy="570" r="1"/><circle cx="180" cy="570" r="1"/><circle cx="210" cy="570" r="1"/><circle cx="240" cy="570" r="1"/><circle cx="270" cy="570" r="1"/><circle cx="300" cy="570" r="1"/><circle cx="330" cy="570" r="1"/><circle cx="360" cy="570" r="1"/><circle cx="390" cy="570" r="1"/><circle cx="420" cy="570" r="1"/><circle cx="450" cy="570" r="1"/><circle cx="480" cy="570" r="1"/><circle cx="510" cy="570" r="1"/><circle cx="540" cy="570" r="1"/><circle cx="570" cy="570" r="1"/><circle cx="600" cy="570" r="1"/><circle cx="630" cy="570" r="1"/><circle cx="660" cy="570" r="1"/><circle cx="690" cy="570" r="1"/><circle cx="720" cy="570" r="1"/><circle cx="750" cy="570" r="1"/><circle cx="780" cy="570" r="1"/><circle cx="810" cy="570" r="1"/><circle cx="840" cy="570" r="1"/><circle cx="870" cy="570" r="1"/><circle cx="900" cy="570" r="1"/><circle cx="930" cy="570" r="1"/><circle cx="960" cy="570" r="1"/><circle cx="990" cy="570" r="1"/><circle cx="1020" cy="570" r="1"/><circle cx="1050" cy="570" r="1"/><circle cx="1080" cy="570" r="1"/><circle cx="1110" cy="570" r="1"/><circle cx="1140" cy="570" r="1"/><circle cx="1170" cy="570" r="1"/>
      <circle cx="30" cy="600" r="1"/><circle cx="60" cy="600" r="1"/><circle cx="90" cy="600" r="1"/><circle cx="120" cy="600" r="1"/><circle cx="150" cy="600" r="1"/><circle cx="180" cy="600" r="1"/><circle cx="210" cy="600" r="1"/><circle cx="240" cy="600" r="1"/><circle cx="270" cy="600" r="1"/><circle cx="300" cy="600" r="1"/><circle cx="330" cy="600" r="1"/><circle cx="360" cy="600" r="1"/><circle cx="390" cy="600" r="1"/><circle cx="420" cy="600" r="1"/><circle cx="450" cy="600" r="1"/><circle cx="480" cy="600" r="1"/><circle cx="510" cy="600" r="1"/><circle cx="540" cy="600" r="1"/><circle cx="570" cy="600" r="1"/><circle cx="600" cy="600" r="1"/><circle cx="630" cy="600" r="1"/><circle cx="660" cy="600" r="1"/><circle cx="690" cy="600" r="1"/><circle cx="720" cy="600" r="1"/><circle cx="750" cy="600" r="1"/><circle cx="780" cy="600" r="1"/><circle cx="810" cy="600" r="1"/><circle cx="840" cy="600" r="1"/><circle cx="870" cy="600" r="1"/><circle cx="900" cy="600" r="1"/><circle cx="930" cy="600" r="1"/><circle cx="960" cy="600" r="1"/><circle cx="990" cy="600" r="1"/><circle cx="1020" cy="600" r="1"/><circle cx="1050" cy="600" r="1"/><circle cx="1080" cy="600" r="1"/><circle cx="1110" cy="600" r="1"/><circle cx="1140" cy="600" r="1"/><circle cx="1170" cy="600" r="1"/>
    </g>
  </g>

  <!-- Soft green glow behind the play button -->
  <circle cx="340" cy="315" r="120" fill="#1DB954" opacity="0.04" filter="url(#softGlow)"/>

  <!-- Play button - circle with triangle -->
  <g transform="translate(340, 315)">
    <!-- Outer glow ring -->
    <circle r="72" fill="none" stroke="#1DB954" stroke-width="1" opacity="0.15"/>
    <!-- Main circle -->
    <circle r="60" fill="#1DB954" opacity="0.95"/>
    <!-- Play triangle (shifted right slightly for optical centering) -->
    <polygon points="22,-28 22,28 -18,0" fill="#050505" transform="translate(4, 0)"/>
  </g>

  <!-- Main headline text -->
  <text x="480" y="275" fill="#ffffff" font-family="system-ui, -apple-system, 'Segoe UI', sans-serif" font-size="52" font-weight="700" letter-spacing="-1.5">
    Turn Claude into
  </text>
  <text x="480" y="340" fill="#ffffff" font-family="system-ui, -apple-system, 'Segoe UI', sans-serif" font-size="52" font-weight="700" letter-spacing="-1.5">
    your personal
    <tspan fill="#1DB954">DJ</tspan>
  </text>

  <!-- Subtext / domain -->
  <text x="480" y="395" fill="#888888" font-family="ui-monospace, 'SF Mono', 'Cascadia Code', monospace" font-size="22" font-weight="400" letter-spacing="1">
    playmcp.dev
  </text>

  <!-- Subtle top border line in green -->
  <rect x="0" y="0" width="1200" height="2" fill="#1DB954" opacity="0.4"/>

  <!-- Subtle bottom border line in green -->
  <rect x="0" y="628" width="1200" height="2" fill="#1DB954" opacity="0.2"/>

  <!-- Corner accents -->
  <rect x="0" y="0" width="40" height="2" fill="#1DB954" opacity="0.8"/>
  <rect x="0" y="0" width="2" height="40" fill="#1DB954" opacity="0.8"/>
  <rect x="1160" y="0" width="40" height="2" fill="#1DB954" opacity="0.8"/>
  <rect x="1198" y="0" width="2" height="40" fill="#1DB954" opacity="0.8"/>
  <rect x="0" y="628" width="40" height="2" fill="#1DB954" opacity="0.6"/>
  <rect x="0" y="590" width="2" height="40" fill="#1DB954" opacity="0.6"/>
  <rect x="1160" y="628" width="40" height="2" fill="#1DB954" opacity="0.6"/>
  <rect x="1198" y="590" width="2" height="40" fill="#1DB954" opacity="0.6"/>
</svg>